<svg xmlns="http://www.w3.org/2000/svg" xmlns:xlink="http://www.w3.org/1999/xlink" viewBox="0 0 726.06 786.44"><defs><style>.cls-1{fill:none;}.cls-2{isolation:isolate;}.cls-3{clip-path:url(#clip-path);}.cls-4{fill:#662d91;opacity:0.3;}.cls-10,.cls-11,.cls-15,.cls-16,.cls-17,.cls-18,.cls-19,.cls-20,.cls-21,.cls-22,.cls-25,.cls-26,.cls-27,.cls-28,.cls-29,.cls-30,.cls-31,.cls-32,.cls-36,.cls-37,.cls-38,.cls-39,.cls-4,.cls-40,.cls-41,.cls-42,.cls-43,.cls-48,.cls-49,.cls-5,.cls-50,.cls-51,.cls-52,.cls-53,.cls-54,.cls-55,.cls-57,.cls-58,.cls-59,.cls-6,.cls-60,.cls-61,.cls-62,.cls-63,.cls-64,.cls-66,.cls-67,.cls-68,.cls-69,.cls-7,.cls-70,.cls-71,.cls-72,.cls-73,.cls-76,.cls-77,.cls-78,.cls-79,.cls-8,.cls-80,.cls-81,.cls-82,.cls-83,.cls-9{mix-blend-mode:multiply;}.cls-5{fill:url(#radial-gradient);}.cls-6{fill:url(#radial-gradient-2);}.cls-7{fill:url(#radial-gradient-3);}.cls-8{fill:url(#radial-gradient-4);}.cls-9{fill:url(#radial-gradient-5);}.cls-10{fill:url(#radial-gradient-6);}.cls-11{fill:url(#radial-gradient-7);}.cls-12{fill:url(#linear-gradient);}.cls-13{fill:#666;}.cls-14{fill:#77c4d3;}.cls-15{fill:url(#radial-gradient-8);}.cls-16{fill:url(#radial-gradient-9);}.cls-17{fill:url(#radial-gradient-10);}.cls-18{fill:url(#radial-gradient-11);}.cls-19{fill:url(#radial-gradient-12);}.cls-20{fill:url(#radial-gradient-13);}.cls-21{fill:url(#radial-gradient-14);}.cls-22{fill:url(#radial-gradient-15);}.cls-23{fill:url(#linear-gradient-2);}.cls-24{fill:#8cc63f;}.cls-25{fill:url(#radial-gradient-16);}.cls-26{fill:url(#radial-gradient-17);}.cls-27{fill:url(#radial-gradient-18);}.cls-28{fill:url(#radial-gradient-19);}.cls-29{fill:url(#radial-gradient-20);}.cls-30{fill:url(#radial-gradient-21);}.cls-31{fill:url(#radial-gradient-22);}.cls-32{fill:url(#radial-gradient-23);}.cls-33{fill:#fff;}.cls-34{fill:url(#linear-gradient-3);}.cls-35{fill:url(#linear-gradient-4);}.cls-36{fill:url(#radial-gradient-24);}.cls-37{fill:url(#radial-gradient-25);}.cls-38{fill:url(#radial-gradient-26);}.cls-39{fill:url(#radial-gradient-27);}.cls-40{fill:url(#radial-gradient-28);}.cls-41{fill:url(#radial-gradient-29);}.cls-42{fill:url(#radial-gradient-30);}.cls-43{fill:url(#radial-gradient-31);}.cls-44{fill:url(#linear-gradient-5);}.cls-45{fill:url(#linear-gradient-6);}.cls-46{fill:url(#linear-gradient-7);}.cls-47{fill:url(#linear-gradient-8);}.cls-48{fill:url(#radial-gradient-32);}.cls-49{fill:url(#radial-gradient-33);}.cls-50{fill:url(#radial-gradient-34);}.cls-51{fill:url(#radial-gradient-35);}.cls-52{fill:url(#radial-gradient-36);}.cls-53{fill:url(#radial-gradient-37);}.cls-54{fill:url(#radial-gradient-38);}.cls-55{fill:url(#radial-gradient-39);}.cls-56{fill:url(#linear-gradient-9);}.cls-57{fill:url(#radial-gradient-40);}.cls-58{fill:url(#radial-gradient-41);}.cls-59{fill:url(#radial-gradient-42);}.cls-60{fill:url(#radial-gradient-43);}.cls-61{fill:url(#radial-gradient-44);}.cls-62{fill:url(#radial-gradient-45);}.cls-63{fill:url(#radial-gradient-46);}.cls-64{fill:url(#radial-gradient-47);}.cls-65{fill:url(#linear-gradient-10);}.cls-66{fill:url(#radial-gradient-48);}.cls-67{fill:url(#radial-gradient-49);}.cls-68{fill:url(#radial-gradient-50);}.cls-69{fill:url(#radial-gradient-51);}.cls-70{fill:url(#radial-gradient-52);}.cls-71{fill:url(#radial-gradient-53);}.cls-72{fill:url(#radial-gradient-54);}.cls-73{fill:url(#radial-gradient-55);}.cls-74{fill:url(#linear-gradient-11);}.cls-75{fill:url(#linear-gradient-12);}.cls-76{fill:url(#radial-gradient-56);}.cls-77{fill:url(#radial-gradient-57);}.cls-78{fill:url(#radial-gradient-58);}.cls-79{fill:url(#radial-gradient-59);}.cls-80{fill:url(#radial-gradient-60);}.cls-81{fill:url(#radial-gradient-61);}.cls-82{fill:url(#radial-gradient-62);}.cls-83{fill:url(#radial-gradient-63);}.cls-84{fill:url(#linear-gradient-13);}.cls-85{fill:url(#linear-gradient-14);}.cls-86{fill:url(#linear-gradient-15);}.cls-87{fill:url(#linear-gradient-16);}.cls-88{fill:url(#linear-gradient-18);}.cls-89{fill:url(#linear-gradient-19);}.cls-90{fill:url(#linear-gradient-20);}.cls-91{fill:url(#linear-gradient-21);}</style><clipPath id="clip-path" transform="translate(0 -36.22)"><rect class="cls-1" x="3.08" width="808.07" height="800"/></clipPath><radialGradient id="radial-gradient" cx="3607.9" cy="2799.24" fx="3453.245242415651" r="195.22" gradientTransform="matrix(-0.4, 0.39, -0.21, -0.22, 2367.66, -75.56)" gradientUnits="userSpaceOnUse"><stop offset="0" stop-color="#a6a8ab"/><stop offset="0.15" stop-color="#c0c1c3"/><stop offset="0.36" stop-color="#dbdcdd"/><stop offset="0.57" stop-color="#efeff0"/><stop offset="0.79" stop-color="#fbfbfb"/><stop offset="1" stop-color="#fff"/></radialGradient><radialGradient id="radial-gradient-2" cx="3623.25" cy="3064.19" fx="3468.593154574777" r="195.22" xlink:href="#radial-gradient"/><radialGradient id="radial-gradient-3" cx="3675.06" cy="2920.37" fx="3520.404458348714" r="195.22" xlink:href="#radial-gradient"/><radialGradient id="radial-gradient-4" cx="3593.3" cy="2799.63" fx="3438.6466308988656" r="195.22" xlink:href="#radial-gradient"/><radialGradient id="radial-gradient-5" cx="3608.65" cy="3064.58" fx="3453.9965810649883" r="195.22" xlink:href="#radial-gradient"/><radialGradient id="radial-gradient-6" cx="3660.46" cy="2920.76" fx="3505.806527860776" r="195.22" xlink:href="#radial-gradient"/><radialGradient id="radial-gradient-7" cx="4707.15" cy="2941.74" fy="2927.2581292949326" r="317.18" gradientTransform="matrix(-0.22, 0.21, -0.21, -0.22, 1974.19, 306.5)" gradientUnits="userSpaceOnUse"><stop offset="0" stop-color="#a6a8ab"/><stop offset="0.26" stop-color="#c1c2c4"/><stop offset="0.75" stop-color="#eeeeef"/><stop offset="1" stop-color="#fff"/></radialGradient><linearGradient id="linear-gradient" x1="292.49" y1="692.53" x2="425.51" y2="559.51" gradientUnits="userSpaceOnUse"><stop offset="0" stop-color="#e6e7e8"/><stop offset="1" stop-color="#fff"/></linearGradient><radialGradient id="radial-gradient-8" cx="3595.08" cy="3431.77" fx="3404.1646726652566" r="240.99" xlink:href="#radial-gradient"/><radialGradient id="radial-gradient-9" cx="3614.03" cy="3758.84" fx="3423.119511823772" r="240.99" xlink:href="#radial-gradient"/><radialGradient id="radial-gradient-10" cx="3677.98" cy="3581.3" fx="3487.070518329714" r="240.99" xlink:href="#radial-gradient"/><radialGradient id="radial-gradient-11" cx="4633.15" cy="3607.73" fy="3589.861191619756" r="391.53" xlink:href="#radial-gradient-7"/><radialGradient id="radial-gradient-12" cx="3569.42" cy="3432.47" fx="3378.50570545945" r="240.99" xlink:href="#radial-gradient"/><radialGradient id="radial-gradient-13" cx="3588.37" cy="3759.54" fx="3397.4577743979944" r="240.99" xlink:href="#radial-gradient"/><radialGradient id="radial-gradient-14" cx="3652.33" cy="3582" fx="3461.4119630134473" r="240.99" xlink:href="#radial-gradient"/><radialGradient id="radial-gradient-15" cx="4585.24" cy="3608.43" fy="3590.552220926093" r="391.53" xlink:href="#radial-gradient-7"/><linearGradient id="linear-gradient-2" x1="155.77" y1="542.96" x2="321.69" y2="377.04" xlink:href="#linear-gradient"/><radialGradient id="radial-gradient-16" cx="3240.78" cy="3788.1" fx="3002.1854169487433" r="301.18" xlink:href="#radial-gradient"/><radialGradient id="radial-gradient-17" cx="3264.46" cy="4196.85" fx="3025.87247429398" r="301.17" xlink:href="#radial-gradient"/><radialGradient id="radial-gradient-18" cx="3344.39" cy="3974.97" fx="3105.799510964228" r="301.18" xlink:href="#radial-gradient"/><radialGradient id="radial-gradient-19" cx="3905.81" cy="4008.02" fy="3985.6814511603206" r="489.31" xlink:href="#radial-gradient-7"/><radialGradient id="radial-gradient-20" cx="3163.2" cy="3790.2" fx="2924.608311645805" r="301.18" xlink:href="#radial-gradient"/><radialGradient id="radial-gradient-21" cx="3186.89" cy="4198.95" fx="2948.294737665959" r="301.17" xlink:href="#radial-gradient"/><radialGradient id="radial-gradient-22" cx="3266.82" cy="3977.07" fx="3028.222696492197" r="301.18" xlink:href="#radial-gradient"/><radialGradient id="radial-gradient-23" cx="3760.97" cy="4010.11" fy="3987.7756029475563" r="489.31" xlink:href="#radial-gradient-7"/><linearGradient id="linear-gradient-3" x1="190.9" y1="292.09" x2="444.43" y2="137.62" xlink:href="#linear-gradient"/><linearGradient id="linear-gradient-4" x1="269.84" y1="172.71" x2="431.53" y2="172.71" gradientUnits="userSpaceOnUse"><stop offset="0.15" stop-color="#d4145a"/><stop offset="1" stop-color="#d44076"/></linearGradient><radialGradient id="radial-gradient-24" cx="3003" cy="3977.09" fx="2965.6222914805735" r="47.18" gradientTransform="matrix(-0.56, 0, 0, -0.3, 2004.85, 1445.9)" xlink:href="#radial-gradient"/><radialGradient id="radial-gradient-25" cx="3006.71" cy="4041.13" fx="2969.332108818903" r="47.18" gradientTransform="matrix(-0.56, 0, 0, -0.3, 1991.91, 1452.83)" xlink:href="#radial-gradient"/><radialGradient id="radial-gradient-26" cx="3019.23" cy="4006.37" fx="2981.853556230968" r="47.18" gradientTransform="matrix(-0.56, 0, 0, -0.3, 2001.27, 1454.75)" xlink:href="#radial-gradient"/><radialGradient id="radial-gradient-27" cx="3739.74" cy="4011.37" fy="4011.3696570640823" r="76.66" gradientTransform="matrix(-0.3, 0, 0, -0.3, 1444.75, 1437.89)" xlink:href="#radial-gradient-7"/><radialGradient id="radial-gradient-28" cx="2990.85" cy="3977.42" fx="2953.469296728188" r="47.18" gradientTransform="matrix(-0.56, 0, 0, -0.3, 2002.86, 1441.12)" xlink:href="#radial-gradient"/><radialGradient id="radial-gradient-29" cx="2994.56" cy="4041.46" fx="2957.1797455631736" r="47.18" gradientTransform="matrix(-0.56, 0, 0, -0.3, 1989.94, 1448.03)" xlink:href="#radial-gradient"/><radialGradient id="radial-gradient-30" cx="3007.08" cy="4006.7" fx="2969.7006339039704" r="47.18" gradientTransform="matrix(-0.56, 0, 0, -0.3, 1999.25, 1450.03)" xlink:href="#radial-gradient"/><radialGradient id="radial-gradient-31" cx="3717.06" cy="4011.7" fy="4011.697654192896" r="76.66" gradientTransform="matrix(-0.3, 0, 0, -0.3, 1442.74, 1433.15)" xlink:href="#radial-gradient-7"/><linearGradient id="linear-gradient-5" x1="301.07" y1="189.17" x2="340.79" y2="164.97" xlink:href="#linear-gradient"/><linearGradient id="linear-gradient-6" x1="305.29" y1="224.98" x2="332.44" y2="197.83" xlink:href="#linear-gradient-4"/><linearGradient id="linear-gradient-7" x1="308.96" y1="228.65" x2="336.11" y2="201.5" xlink:href="#linear-gradient-4"/><linearGradient id="linear-gradient-8" x1="307.34" y1="227.03" x2="334.49" y2="199.88" xlink:href="#linear-gradient-4"/><radialGradient id="radial-gradient-32" cx="3408.85" cy="3587.95" fx="3374.388763255666" r="43.5" gradientTransform="matrix(-0.56, 0, 0, -0.3, 2151.89, 1572.03)" xlink:href="#radial-gradient"/><radialGradient id="radial-gradient-33" cx="3412.27" cy="3646.99" fx="3377.809517612973" r="43.5" gradientTransform="matrix(-0.56, 0, 0, -0.3, 2139.97, 1578.39)" xlink:href="#radial-gradient"/><radialGradient id="radial-gradient-34" cx="3423.81" cy="3614.94" fx="3389.3524578047445" r="43.5" gradientTransform="matrix(-0.56, 0, 0, -0.3, 2148.58, 1580.19)" xlink:href="#radial-gradient"/><radialGradient id="radial-gradient-35" cx="4501.51" cy="3619.56" fy="3619.5597445218955" r="70.67" gradientTransform="matrix(-0.3, 0, 0, -0.3, 1592.71, 1564.6)" xlink:href="#radial-gradient-7"/><radialGradient id="radial-gradient-36" cx="3397.64" cy="3588.26" fx="3363.1835377067605" r="43.5" gradientTransform="matrix(-0.56, 0, 0, -0.3, 2150.05, 1567.63)" xlink:href="#radial-gradient"/><radialGradient id="radial-gradient-37" cx="3401.07" cy="3647.29" fx="3366.603744820942" r="43.5" gradientTransform="matrix(-0.56, 0, 0, -0.3, 2138.15, 1573.96)" xlink:href="#radial-gradient"/><radialGradient id="radial-gradient-38" cx="3412.61" cy="3615.25" fx="3378.1496414725043" r="43.5" gradientTransform="matrix(-0.56, 0, 0, -0.3, 2146.71, 1575.84)" xlink:href="#radial-gradient"/><radialGradient id="radial-gradient-39" cx="4480.59" cy="3619.86" fy="3619.864766793853" r="70.67" gradientTransform="matrix(-0.3, 0, 0, -0.3, 1590.85, 1560.23)" xlink:href="#radial-gradient-7"/><linearGradient id="linear-gradient-9" x1="219.99" y1="434.45" x2="256.61" y2="412.14" xlink:href="#linear-gradient"/><radialGradient id="radial-gradient-40" cx="3458.15" cy="2923.82" fx="3431.0061693138196" r="34.27" gradientTransform="matrix(-0.56, 0, 0, -0.3, 2300.29, 1534.41)" xlink:href="#radial-gradient"/><radialGradient id="radial-gradient-41" cx="3460.85" cy="2970.32" fx="3433.702082019025" r="34.26" gradientTransform="matrix(-0.56, 0, 0, -0.3, 2290.89, 1539.44)" xlink:href="#radial-gradient"/><radialGradient id="radial-gradient-42" cx="3469.94" cy="2945.08" fx="3442.7929725865006" r="34.27" gradientTransform="matrix(-0.56, 0, 0, -0.3, 2297.69, 1540.83)" xlink:href="#radial-gradient"/><radialGradient id="radial-gradient-43" cx="4603.66" cy="2948.68" fy="2948.683430660989" r="55.67" gradientTransform="matrix(-0.3, 0, 0, -0.3, 1743.41, 1528.5)" xlink:href="#radial-gradient-7"/><radialGradient id="radial-gradient-44" cx="3449.32" cy="2924.06" fx="3422.180369464421" r="34.26" gradientTransform="matrix(-0.56, 0, 0, -0.3, 2298.86, 1530.89)" xlink:href="#radial-gradient"/><radialGradient id="radial-gradient-45" cx="3452.02" cy="2970.56" fx="3424.8753177446783" r="34.27" gradientTransform="matrix(-0.56, 0, 0, -0.3, 2289.48, 1535.89)" xlink:href="#radial-gradient"/><radialGradient id="radial-gradient-46" cx="3461.11" cy="2945.32" fx="3433.969551039582" r="34.26" gradientTransform="matrix(-0.56, 0, 0, -0.3, 2296.25, 1537.35)" xlink:href="#radial-gradient"/><radialGradient id="radial-gradient-47" cx="4587.19" cy="2948.92" fy="2948.9201935096826" r="55.67" gradientTransform="matrix(-0.3, 0, 0, -0.3, 1741.93, 1525.08)" xlink:href="#radial-gradient-7"/><linearGradient id="linear-gradient-10" x1="342.53" y1="601.01" x2="371.38" y2="583.44" xlink:href="#linear-gradient"/><radialGradient id="radial-gradient-48" cx="3344.65" cy="2786.69" fx="3007.94369891376" r="425.02" xlink:href="#radial-gradient"/><radialGradient id="radial-gradient-49" cx="3378.07" cy="3363.52" fx="3041.371271533378" r="425.02" xlink:href="#radial-gradient"/><radialGradient id="radial-gradient-50" cx="3490.87" cy="3050.4" fx="3154.168806942079" r="425.02" xlink:href="#radial-gradient"/><radialGradient id="radial-gradient-51" cx="3964.25" cy="3097.13" fy="3065.6087417541753" r="690.52" xlink:href="#radial-gradient-7"/><radialGradient id="radial-gradient-52" cx="3283.59" cy="2795.45" fx="2946.891699240946" r="425.02" xlink:href="#radial-gradient"/><radialGradient id="radial-gradient-53" cx="3317.02" cy="3372.27" fx="2980.3186806299805" r="425.02" xlink:href="#radial-gradient"/><radialGradient id="radial-gradient-54" cx="3429.82" cy="3059.16" fx="3093.1168380990416" r="425.02" xlink:href="#radial-gradient"/><radialGradient id="radial-gradient-55" cx="3850.26" cy="3105.88" fy="3074.360566594889" r="690.53" xlink:href="#radial-gradient-7"/><linearGradient id="linear-gradient-11" x1="369.75" y1="549.6" x2="660.33" y2="259.02" xlink:href="#linear-gradient"/><linearGradient id="linear-gradient-12" x1="359.36" y1="407.02" x2="673.85" y2="407.02" gradientUnits="userSpaceOnUse"><stop offset="0.09" stop-color="#f7931e"/><stop offset="1" stop-color="#ffa640"/></linearGradient><radialGradient id="radial-gradient-56" cx="2995.73" cy="3068.91" fx="2949.6231737815588" r="58.2" gradientTransform="matrix(-0.56, 0, 0, -0.3, 2195.85, 1365.14)" xlink:href="#radial-gradient"/><radialGradient id="radial-gradient-57" cx="3000.31" cy="3147.9" fx="2954.2013887334906" r="58.2" gradientTransform="matrix(-0.56, 0, 0, -0.3, 2179.91, 1373.64)" xlink:href="#radial-gradient"/><radialGradient id="radial-gradient-58" cx="3015.75" cy="3105.02" fx="2969.6456825700484" r="58.2" gradientTransform="matrix(-0.56, 0, 0, -0.3, 2191.42, 1376.07)" xlink:href="#radial-gradient"/><radialGradient id="radial-gradient-59" cx="3714.12" cy="3111.24" fy="3111.2402879000947" r="94.56" gradientTransform="matrix(-0.3, 0, 0, -0.3, 1633.03, 1355.25)" xlink:href="#radial-gradient-7"/><radialGradient id="radial-gradient-60" cx="2980.74" cy="3069.32" fx="2934.6317770893743" r="58.2" gradientTransform="matrix(-0.56, 0, 0, -0.3, 2193.41, 1359.23)" xlink:href="#radial-gradient"/><radialGradient id="radial-gradient-61" cx="2985.32" cy="3148.31" fx="2939.208392975609" r="58.2" xlink:href="#radial-gradient"/><radialGradient id="radial-gradient-62" cx="3000.76" cy="3105.43" fx="2954.655652425519" r="58.2" gradientTransform="matrix(-0.56, 0, 0, -0.3, 2188.96, 1370.2)" xlink:href="#radial-gradient"/><radialGradient id="radial-gradient-63" cx="3686.13" cy="3111.64" fy="3111.6431422366077" r="94.56" gradientTransform="matrix(-0.3, 0, 0, -0.3, 1630.54, 1349.4)" xlink:href="#radial-gradient-7"/><linearGradient id="linear-gradient-13" x1="493.84" y1="381.26" x2="542.84" y2="351.41" xlink:href="#linear-gradient"/><linearGradient id="linear-gradient-14" x1="500.09" y1="382.98" x2="534.85" y2="348.22" gradientUnits="userSpaceOnUse"><stop offset="0.15" stop-color="#f15a24"/><stop offset="1" stop-color="#f18c68"/></linearGradient><linearGradient id="linear-gradient-15" x1="500.98" y1="420.09" x2="535.74" y2="385.33" xlink:href="#linear-gradient-12"/><linearGradient id="linear-gradient-16" x1="345.98" y1="88.06" x2="474.8" y2="88.06" xlink:href="#linear-gradient-4"/><linearGradient id="linear-gradient-18" x1="355.92" y1="57.25" x2="487.9" y2="57.25" xlink:href="#linear-gradient-4"/><linearGradient id="linear-gradient-19" x1="537.28" y1="199.67" x2="680.23" y2="199.67" xlink:href="#linear-gradient-12"/><linearGradient id="linear-gradient-20" x1="541.98" y1="153.95" x2="694.34" y2="153.95" xlink:href="#linear-gradient-12"/><linearGradient id="linear-gradient-21" x1="541.98" y1="197.62" x2="694.34" y2="197.62" xlink:href="#linear-gradient-12"/></defs><title>about</title><g class="cls-2"><g id="Layer_2" data-name="Layer 2"><g id="OBJECTS"><g class="cls-3"><path class="cls-4" d="M471.78,254.11c-1.56-.91-3.14-1.78-4.73-2.63q2.38,1.27,4.73,2.64Z" transform="translate(0 -36.22)"/><path class="cls-4" d="M410,772.16q-2.34-1.35-4.73-2.63c1.58.85,3.16,1.73,4.73,2.63Z" transform="translate(0 -36.22)"/><path class="cls-4" d="M241,666.42c0,.23,0,.45,0,.68s0,.49,0,.74c0-.32,0-.63,0-1C241,666.73,241,666.57,241,666.42Z" transform="translate(0 -36.22)"/><path class="cls-4" d="M241,666.06c0,.12,0,.24,0,.36s0,.31,0,.46c0,.32,0,.63,0,1,0,.08,0,.16,0,.25C241,667.4,241,666.73,241,666.06Z" transform="translate(0 -36.22)"/><path class="cls-4" d="M241,666.06c0,.12,0,.24,0,.36s0,.31,0,.46c0,.32,0,.63,0,1,0,.08,0,.16,0,.25C241,667.4,241,666.73,241,666.06Z" transform="translate(0 -36.22)"/><path class="cls-5" d="M236.61,809.1c-22.82-23.51-6-76.89,37.66-119.24s97.48-57.66,120.3-34.16,6,76.88-37.66,119.25S259.43,832.59,236.61,809.1Z" transform="translate(0 -36.22)"/><path class="cls-6" d="M174.33,757.4c-22.81-23.5-6-76.89,37.66-119.24S309.47,580.5,332.3,604s6,76.89-37.66,119.24S197.15,780.88,174.33,757.4Z" transform="translate(0 -36.22)"/><path class="cls-7" d="M183.8,809.1c-22.82-23.51-6-76.89,37.66-119.24s97.48-57.66,120.3-34.16,5.95,76.88-37.66,119.25S206.62,832.59,183.8,809.1Z" transform="translate(0 -36.22)"/><path class="cls-8" d="M242.43,803.28c-22.82-23.51-6-76.89,37.66-119.25s97.48-57.66,120.29-34.17,6,76.89-37.66,119.25S265.25,826.77,242.43,803.28Z" transform="translate(0 -36.22)"/><path class="cls-9" d="M180.15,751.58c-22.81-23.5-6-76.89,37.66-119.24s97.48-57.66,120.3-34.17,6,76.89-37.66,119.25S203,775.05,180.15,751.58Z" transform="translate(0 -36.22)"/><path class="cls-10" d="M189.62,803.28c-22.82-23.51-6-76.89,37.67-119.25s97.47-57.66,120.3-34.17,5.95,76.89-37.66,119.25S212.44,826.77,189.62,803.28Z" transform="translate(0 -36.22)"/><path class="cls-11" d="M263,723.09c-37.08-38.19-36.37-99,1.59-135.86s98.77-35.8,135.85,2.38,36.36,99-1.59,135.87S300,761.26,263,723.09Z" transform="translate(0 -36.22)"/><path class="cls-12" d="M454,627.24A96.21,96.21,0,1,1,357.78,531,96.2,96.2,0,0,1,454,627.24Z" transform="translate(0 -36.22)"/><path class="cls-4" d="M270.85,538.49h0l.06-.05Z" transform="translate(0 -36.22)"/><path class="cls-13" d="M316.19,660.75a6.74,6.74,0,0,1-.43,2.4,9.63,9.63,0,0,1-1.15,2.17,16,16,0,0,1-1.66,2c-.61.65-1.27,1.27-2,1.89h0c-.72.66-1.44,1.35-2.15,2.06a18.27,18.27,0,0,0-2,2.33,14.21,14.21,0,0,0-1.58,2.79,12.56,12.56,0,0,0-.89,3.41h11.73v1.54H302.8a14.86,14.86,0,0,1,.7-4.5,15.48,15.48,0,0,1,1.67-3.54,17.14,17.14,0,0,1,2.27-2.83c.83-.83,1.67-1.63,2.52-2.4q.93-.85,1.77-1.74a16.31,16.31,0,0,0,1.5-1.78,8.49,8.49,0,0,0,1-1.85,5,5,0,0,0,.39-1.94,5.6,5.6,0,0,0-.33-1.91,4.49,4.49,0,0,0-1-1.59,4.81,4.81,0,0,0-1.67-1.09,6.1,6.1,0,0,0-2.31-.41,6,6,0,0,0-2.92.71,6.64,6.64,0,0,0-2.19,1.9l-1.27-.85a8,8,0,0,1,2.75-2.4,8.08,8.08,0,0,1,6.62-.36,6.25,6.25,0,0,1,2.15,1.44,5.79,5.79,0,0,1,1.28,2.07A7.18,7.18,0,0,1,316.19,660.75Z" transform="translate(0 -36.22)"/><path class="cls-13" d="M332.38,671.18a6.89,6.89,0,0,0-.5-2.63,6.25,6.25,0,0,0-1.37-2.08,6.14,6.14,0,0,0-2-1.34,6.29,6.29,0,0,0-2.46-.49,6,6,0,0,0-1.75.25,7.21,7.21,0,0,0-1.55.67h-1.54V654.41h11.54V656h-10v7.88a7.42,7.42,0,0,1,3.3-.73,7.76,7.76,0,0,1,3.06.61,7.87,7.87,0,0,1,2.52,1.7A7.7,7.7,0,0,1,333.3,668a8.26,8.26,0,0,1,.61,3.21v2.27a8.3,8.3,0,0,1-.61,3.21,7.83,7.83,0,0,1-1.69,2.55,8,8,0,0,1-2.52,1.7,7.78,7.78,0,0,1-3.06.61,7.69,7.69,0,0,1-3.63-.88,8,8,0,0,1-2.75-2.35l1.27-.89a6.37,6.37,0,0,0,2.19,1.89,6.14,6.14,0,0,0,2.92.7,6.24,6.24,0,0,0,2.46-.49,6.07,6.07,0,0,0,2-1.35,6.24,6.24,0,0,0,1.37-2.07,6.87,6.87,0,0,0,.5-2.63Z" transform="translate(0 -36.22)"/><path class="cls-13" d="M337,658.25a4,4,0,0,1,.31-1.58,3.8,3.8,0,0,1,.86-1.27,4.52,4.52,0,0,1,1.29-.86,4,4,0,0,1,3.15,0,4.32,4.32,0,0,1,1.27.86,4.19,4.19,0,0,1,.87,1.27,4,4,0,0,1,0,3.16,4.5,4.5,0,0,1-.87,1.29,3.85,3.85,0,0,1-1.27.87,4.2,4.2,0,0,1-3.15,0,4,4,0,0,1-1.29-.87,4,4,0,0,1-1.17-2.87Zm1.54,0a2.5,2.5,0,1,0,.73-1.77A2.41,2.41,0,0,0,338.53,658.25Zm2.38,23.08,6.46-26.92H349l-6.46,26.92Zm3.88-3.85a4.06,4.06,0,0,1,.31-1.57,3.79,3.79,0,0,1,.87-1.27,4.46,4.46,0,0,1,1.29-.87,4,4,0,0,1,3.15,0,4.27,4.27,0,0,1,1.27.87,4.21,4.21,0,0,1,.87,1.27,3.95,3.95,0,0,1,0,3.15,4.43,4.43,0,0,1-.87,1.29,3.74,3.74,0,0,1-1.27.87,4.16,4.16,0,0,1-3.15,0,3.9,3.9,0,0,1-1.29-.87,4,4,0,0,1-.87-1.29A4.07,4.07,0,0,1,344.8,677.48Zm1.54,0a2.49,2.49,0,1,0,.73-1.76A2.41,2.41,0,0,0,346.34,677.48Z" transform="translate(0 -36.22)"/><path class="cls-14" d="M414.83,581.6a72.22,72.22,0,0,0-127.47,57.23l42.79-7.13a28,28,0,1,1,32.7,23.06l6.79,43.54A72.24,72.24,0,0,0,414.83,581.6Z" transform="translate(0 -36.22)"/><path class="cls-15" d="M89.43,684.21c-28.17-29-7.35-94.92,46.49-147.2s120.33-71.18,148.5-42.18,7.35,94.91-46.49,147.21S117.6,713.21,89.43,684.21Z" transform="translate(0 -36.22)"/><path class="cls-16" d="M12.55,620.39c-28.16-29-7.35-94.92,46.49-147.2S179.38,402,207.55,431s7.35,94.91-46.49,147.2S40.72,649.38,12.55,620.39Z" transform="translate(0 -36.22)"/><path class="cls-17" d="M24.25,684.21c-28.17-29-7.36-94.92,46.49-147.2s120.33-71.18,148.5-42.18,7.35,94.91-46.49,147.21S52.41,713.21,24.25,684.21Z" transform="translate(0 -36.22)"/><path class="cls-18" d="M122,578c-45.77-47.14-44.9-122.23,2-167.71s121.93-44.19,167.7,2.93,44.89,122.22-2,167.72S167.73,625.15,122,578Z" transform="translate(0 -36.22)"/><path class="cls-19" d="M99.67,674c-28.17-29-7.35-94.92,46.49-147.21s120.33-71.18,148.5-42.18S302,579.51,248.17,631.8,127.83,703,99.67,674Z" transform="translate(0 -36.22)"/><path class="cls-20" d="M22.79,610.15c-28.16-29-7.35-94.91,46.49-147.2s120.34-71.17,148.51-42.17,7.35,94.91-46.49,147.2S51,639.14,22.79,610.15Z" transform="translate(0 -36.22)"/><path class="cls-21" d="M34.48,674C6.31,645,27.12,579.06,81,526.78S201.3,455.6,229.47,484.6,236.82,579.51,183,631.8,62.65,703,34.48,674Z" transform="translate(0 -36.22)"/><path class="cls-22" d="M132.19,567.8c-45.77-47.14-44.9-122.23,2-167.71S256.08,355.9,301.86,403s44.88,122.22-2,167.72S178,614.92,132.19,567.8Z" transform="translate(0 -36.22)"/><path class="cls-23" d="M357.77,459.72A118.76,118.76,0,1,1,239,341,118.76,118.76,0,0,1,357.77,459.72Z" transform="translate(0 -36.22)"/><path class="cls-4" d="M131.7,350.16h0l.08-.07Z" transform="translate(0 -36.22)"/><path class="cls-13" d="M162.19,459.47h.24a5.51,5.51,0,0,0,2.33-.5,6.23,6.23,0,0,0,1.9-1.33,6.09,6.09,0,0,0,1.26-1.9,5.58,5.58,0,0,0,.45-2.21,7.52,7.52,0,0,0-.48-2.71,6.2,6.2,0,0,0-1.33-2.11,6,6,0,0,0-2-1.35,6.09,6.09,0,0,0-2.4-.47,7.4,7.4,0,0,0-3.61.88,8.25,8.25,0,0,0-2.71,2.35l-1.56-1a10,10,0,0,1,3.39-3,9.34,9.34,0,0,1,4.49-1.11,7.76,7.76,0,0,1,3.13.64,7.88,7.88,0,0,1,2.57,1.78,8.59,8.59,0,0,1,1.73,2.71,9,9,0,0,1,.64,3.42,7.11,7.11,0,0,1-1.14,3.92,7.88,7.88,0,0,1-4.18,2.87,9.89,9.89,0,0,1,5.37,3.39,8.44,8.44,0,0,1,1.61,5,10.22,10.22,0,0,1-.76,4,9.72,9.72,0,0,1-2.09,3.16,9.85,9.85,0,0,1-3.11,2.09,9.79,9.79,0,0,1-8.26-.33,9.93,9.93,0,0,1-3.39-2.9l1.56-1.09a8,8,0,0,0,2.71,2.33,7.63,7.63,0,0,0,3.61.85,7.73,7.73,0,0,0,3-.59,7.54,7.54,0,0,0,2.49-1.66,7.75,7.75,0,0,0,1.69-2.57,8.45,8.45,0,0,0,.62-3.25,6.61,6.61,0,0,0-.62-2.81,7.7,7.7,0,0,0-1.69-2.35,8,8,0,0,0-2.49-1.61,7.82,7.82,0,0,0-3-.59Z" transform="translate(0 -36.22)"/><path class="cls-13" d="M186.4,456a9.54,9.54,0,0,1,3.77.76,9.64,9.64,0,0,1,5.2,5.25,10.22,10.22,0,0,1,.76,4v2.81a10.22,10.22,0,0,1-.76,4,9.63,9.63,0,0,1-5.2,5.25,9.78,9.78,0,0,1-7.55,0,9.8,9.8,0,0,1-3.11-2.09,9.62,9.62,0,0,1-2.09-3.16,10.18,10.18,0,0,1-.76-4v-2.81a50.46,50.46,0,0,1,.52-7.31,20,20,0,0,1,2.06-6.53,13.42,13.42,0,0,1,4.34-4.84,14.65,14.65,0,0,1,7.31-2.25v1.9a11.7,11.7,0,0,0-5,1,10.11,10.11,0,0,0-3.47,2.63,12.54,12.54,0,0,0-2.21,3.94,25.78,25.78,0,0,0-1.19,4.89,10.9,10.9,0,0,1,3.23-2.44A9.09,9.09,0,0,1,186.4,456Zm0,1.9a7.83,7.83,0,0,0-2.94.55,7.61,7.61,0,0,0-4.16,3.91,8.34,8.34,0,0,0-.73,3v3.37a8.37,8.37,0,0,0,.62,3.25,7.69,7.69,0,0,0,1.68,2.57,7.52,7.52,0,0,0,2.49,1.66,8.07,8.07,0,0,0,6.08,0,7.51,7.51,0,0,0,2.49-1.66,7.72,7.72,0,0,0,1.68-2.57,8.36,8.36,0,0,0,.62-3.25v-2.81a8.36,8.36,0,0,0-.62-3.25,7.59,7.59,0,0,0-4.18-4.23A7.8,7.8,0,0,0,186.4,457.85Z" transform="translate(0 -36.22)"/><path class="cls-13" d="M199.94,450a4.91,4.91,0,0,1,.38-1.94,4.65,4.65,0,0,1,1.07-1.57A5.52,5.52,0,0,1,203,445.4a4.93,4.93,0,0,1,3.9,0,5.27,5.27,0,0,1,1.56,1.07A5.14,5.14,0,0,1,209.5,448a4.91,4.91,0,0,1,0,3.89,5.55,5.55,0,0,1-1.07,1.59,4.79,4.79,0,0,1-1.56,1.07,5,5,0,0,1-6.55-2.66A4.94,4.94,0,0,1,199.94,450Zm1.9,0a3.09,3.09,0,1,0,.9-2.18A3,3,0,0,0,201.83,450Zm2.94,28.49,8-33.23h1.95l-8,33.23Zm4.79-4.75a5,5,0,0,1,.38-1.95A4.74,4.74,0,0,1,211,470.2a5.67,5.67,0,0,1,1.59-1.07,4.92,4.92,0,0,1,3.89,0,5.07,5.07,0,0,1,2.63,2.63,4.88,4.88,0,0,1,0,3.9,5.64,5.64,0,0,1-1.07,1.59,4.66,4.66,0,0,1-1.57,1.07,5.16,5.16,0,0,1-3.89,0,4.95,4.95,0,0,1-2.66-2.66A5,5,0,0,1,209.57,473.71Zm1.9,0a3.08,3.08,0,1,0,.9-2.18A3,3,0,0,0,211.47,473.71Z" transform="translate(0 -36.22)"/><path class="cls-24" d="M327.23,446.81A89.16,89.16,0,0,0,226.1,371.5l8.53,58.3A30.25,30.25,0,1,1,239,490a30.47,30.47,0,0,1-6.35-.68l-12.17,57.64A89.2,89.2,0,0,0,327.23,446.81Z" transform="translate(0 -36.22)"/><path class="cls-25" d="M133,491c-35.21-36.27-9.19-118.62,58.1-184s150.38-89,185.59-52.72,9.18,118.62-58.1,184S168.24,527.22,133,491Z" transform="translate(0 -36.22)"/><path class="cls-26" d="M37,411.21C1.76,375,27.76,292.6,95.06,227.26s150.39-89,185.59-52.72,9.19,118.62-58.1,184S72.15,447.44,37,411.21Z" transform="translate(0 -36.22)"/><path class="cls-27" d="M51.56,491c-35.2-36.26-9.19-118.62,58.1-184s150.38-89,185.59-52.71,9.18,118.62-58.1,184S86.77,527.22,51.56,491Z" transform="translate(0 -36.22)"/><path class="cls-28" d="M173.68,358.28c-57.2-58.91-56.11-152.75,2.45-209.59s152.38-55.23,209.59,3.67S441.81,305.09,383.28,362,230.88,417.17,173.68,358.28Z" transform="translate(0 -36.22)"/><path class="cls-29" d="M164,460c-35.2-36.27-9.19-118.62,58.1-184s150.39-89,185.59-52.72,9.18,118.62-58.1,184S199.18,496.27,164,460Z" transform="translate(0 -36.22)"/><path class="cls-30" d="M67.9,380.27C32.71,344,58.71,261.65,126,196.32s150.39-89,185.59-52.72,9.19,118.62-58.1,184S103.1,416.5,67.9,380.27Z" transform="translate(0 -36.22)"/><path class="cls-31" d="M82.51,460c-35.2-36.26-9.19-118.62,58.1-184s150.38-89,185.59-52.71,9.18,118.62-58.1,184S117.71,496.27,82.51,460Z" transform="translate(0 -36.22)"/><path class="cls-32" d="M204.62,327.33c-57.2-58.91-56.11-152.75,2.46-209.6s152.38-55.23,209.59,3.67S472.76,274.15,414.22,331,261.82,386.23,204.62,327.33Z" transform="translate(0 -36.22)"/><path class="cls-33" d="M468.39,210.42A148.42,148.42,0,1,1,320,62,148.42,148.42,0,0,1,468.39,210.42Z" transform="translate(0 -36.22)"/><path class="cls-34" d="M468.39,213.45A148.42,148.42,0,1,1,320,65,148.42,148.42,0,0,1,468.39,213.45Z" transform="translate(0 -36.22)"/><path class="cls-4" d="M185.85,73.5h0l.1-.09Z" transform="translate(0 -36.22)"/><path class="cls-35" d="M427.21,184.22a111.38,111.38,0,0,0-157.37-68.81l32.38,63.84a38.53,38.53,0,0,1,54.74,45L428.16,242A110.93,110.93,0,0,0,427.21,184.22Z" transform="translate(0 -36.22)"/><path class="cls-13" d="M259.82,242.18a30.34,30.34,0,0,1-1.72,5.13,32.92,32.92,0,0,1-2.34,4.39q-1.31,2-2.67,4.06t-2.82,4.36A32.76,32.76,0,0,0,246,270.84a29.5,29.5,0,0,0-.62,6.65H243a32.55,32.55,0,0,1,.65-7.15,34.53,34.53,0,0,1,1.87-6.2,34.16,34.16,0,0,1,2.61-5.1q1.45-2.31,2.93-4.57l2.25-3.47a37,37,0,0,0,2.08-3.68,27.51,27.51,0,0,0,1.63-4.15,30.18,30.18,0,0,0,1-4.84H240V236h20.65A33.38,33.38,0,0,1,259.82,242.18Z" transform="translate(0 -36.22)"/><path class="cls-13" d="M290.34,265.32a12.8,12.8,0,0,1-.95,5,12,12,0,0,1-6.5,6.56,12.19,12.19,0,0,1-9.43,0,12.12,12.12,0,0,1-3.89-2.61,12,12,0,0,1-2.61-3.94,12.81,12.81,0,0,1-1-5,10.6,10.6,0,0,1,2-6.26,12.36,12.36,0,0,1,5.19-4.24,11.22,11.22,0,0,1-3.68-3.59,8.94,8.94,0,0,1-1.42-4.89,11.26,11.26,0,0,1,.8-4.27,10.69,10.69,0,0,1,2.17-3.38,9.87,9.87,0,0,1,14.24,0,10.76,10.76,0,0,1,2.17,3.38,11.27,11.27,0,0,1,.8,4.27,8.87,8.87,0,0,1-1.42,4.89,11,11,0,0,1-3.74,3.59,12.58,12.58,0,0,1,5.22,4.24A10.53,10.53,0,0,1,290.34,265.32Zm-12.16-9.2a9.76,9.76,0,0,0-3.79.74,10,10,0,0,0-3.12,2,9.67,9.67,0,0,0-2.11,2.94,8.2,8.2,0,0,0-.77,3.5,10.51,10.51,0,0,0,.77,4.06,9.72,9.72,0,0,0,2.11,3.2,9.54,9.54,0,0,0,3.12,2.08,10.11,10.11,0,0,0,7.59,0,9.52,9.52,0,0,0,3.11-2.08,9.67,9.67,0,0,0,2.11-3.2,10.49,10.49,0,0,0,.77-4.06,8.13,8.13,0,0,0-.74-3.41,9.18,9.18,0,0,0-2-2.88,10.87,10.87,0,0,0-3.08-2A10.15,10.15,0,0,0,278.18,256.13Zm0-2.37a7.38,7.38,0,0,0,3.06-.62,8,8,0,0,0,2.43-1.66,7.84,7.84,0,0,0,1.63-2.37,6.68,6.68,0,0,0,.59-2.76,9.3,9.3,0,0,0-.59-3.38,7.73,7.73,0,0,0-1.66-2.64,7.72,7.72,0,0,0-8.45-1.69,7.45,7.45,0,0,0-2.46,1.69,7.65,7.65,0,0,0-1.66,2.64,9.34,9.34,0,0,0-.59,3.38,6.86,6.86,0,0,0,.59,2.82,7.51,7.51,0,0,0,1.66,2.38,7.93,7.93,0,0,0,2.46,1.63A7.57,7.57,0,0,0,278.18,253.75Z" transform="translate(0 -36.22)"/><path class="cls-13" d="M295.09,241.88a6.2,6.2,0,0,1,.47-2.43,5.85,5.85,0,0,1,1.33-2,6.88,6.88,0,0,1,2-1.33,6.11,6.11,0,0,1,4.87,0,6.39,6.39,0,0,1,3.29,3.29,6.14,6.14,0,0,1,0,4.86,6.86,6.86,0,0,1-1.34,2,5.83,5.83,0,0,1-2,1.33,6.21,6.21,0,0,1-8.66-5.76Zm2.37,0a3.85,3.85,0,1,0,1.13-2.73A3.71,3.71,0,0,0,297.46,241.88Zm3.68,35.6,10-41.53h2.43l-10,41.53Zm6-5.93a6.28,6.28,0,0,1,.47-2.43,5.89,5.89,0,0,1,1.34-2,6.82,6.82,0,0,1,2-1.33,6.11,6.11,0,0,1,4.86,0,6.45,6.45,0,0,1,2,1.33,6.59,6.59,0,0,1,1.33,2,6.09,6.09,0,0,1,0,4.86,7,7,0,0,1-1.33,2,5.79,5.79,0,0,1-2,1.33,6.44,6.44,0,0,1-4.86,0,6.1,6.1,0,0,1-2-1.33,6.2,6.2,0,0,1-1.34-2A6.28,6.28,0,0,1,307.13,271.55Zm2.38,0a3.85,3.85,0,1,0,1.13-2.73A3.7,3.7,0,0,0,309.51,271.55Z" transform="translate(0 -36.22)"/><ellipse class="cls-36" cx="311.09" cy="238.01" rx="26.61" ry="14.33" transform="translate(-77.9 247.8) rotate(-44.16)"/><ellipse class="cls-37" cx="296.04" cy="225.52" rx="26.61" ry="14.33" transform="translate(-73.45 233.77) rotate(-44.16)"/><ellipse class="cls-38" cx="298.33" cy="238.01" rx="26.61" ry="14.33" transform="translate(-81.5 238.9) rotate(-44.16)"/><ellipse class="cls-39" cx="314.98" cy="219.63" rx="23.15" ry="23.29" transform="translate(-63.99 245.3) rotate(-44.16)"/><ellipse class="cls-40" cx="315.94" cy="233.17" rx="26.61" ry="14.33" transform="translate(-73.15 249.8) rotate(-44.16)"/><ellipse class="cls-41" cx="300.89" cy="220.67" rx="26.61" ry="14.33" transform="translate(-68.7 235.77) rotate(-44.16)"/><ellipse class="cls-42" cx="303.18" cy="233.17" rx="26.61" ry="14.33" transform="translate(-76.76 240.91) rotate(-44.16)"/><ellipse class="cls-43" cx="319.83" cy="214.79" rx="23.15" ry="23.29" transform="translate(-59.25 247.31) rotate(-44.16)"/><circle class="cls-33" cx="321.29" cy="176.38" r="23.25"/><circle class="cls-44" cx="321.29" cy="176.85" r="23.25"/><path class="cls-45" d="M324.79,210.15a2,2,0,0,0,0-2.86,3.4,3.4,0,0,0-2-.41h-4.09v3.73h4.14A3.26,3.26,0,0,0,324.79,210.15Z" transform="translate(0 -36.22)"/><path class="cls-46" d="M325.2,214.13a3.77,3.77,0,0,0-2.25-.51h-4.24v4.6H323a3.67,3.67,0,0,0,2.2-.56,2,2,0,0,0,.72-1.74A2.14,2.14,0,0,0,325.2,214.13Z" transform="translate(0 -36.22)"/><path class="cls-47" d="M321.29,193.21a19.86,19.86,0,1,0,19.86,19.86A19.86,19.86,0,0,0,321.29,193.21ZM328,220a7.33,7.33,0,0,1-4.75,1.38h-8V205.65a1.83,1.83,0,0,1,1.84-1.84h6.44a6.6,6.6,0,0,1,4.14,1.13,4.15,4.15,0,0,1,1.43,3.32,4.24,4.24,0,0,1-.56,2.25,3.92,3.92,0,0,1-1.59,1.38,4.61,4.61,0,0,1,2,1.59,4.45,4.45,0,0,1,.67,2.56A5,5,0,0,1,328,220Z" transform="translate(0 -36.22)"/><ellipse class="cls-48" cx="229.23" cy="482.31" rx="24.53" ry="13.21" transform="translate(-271.24 259.82) rotate(-44.16)"/><ellipse class="cls-49" cx="215.35" cy="470.79" rx="24.53" ry="13.21" transform="translate(-267.13 246.88) rotate(-44.16)"/><ellipse class="cls-50" cx="217.46" cy="482.31" rx="24.53" ry="13.22" transform="translate(-274.56 251.61) rotate(-44.16)"/><ellipse class="cls-51" cx="232.82" cy="465.36" rx="21.35" ry="21.47" transform="translate(-258.41 257.51) rotate(-44.16)"/><ellipse class="cls-52" cx="233.7" cy="477.84" rx="24.53" ry="13.21" transform="translate(-266.86 261.67) rotate(-44.16)"/><ellipse class="cls-53" cx="219.82" cy="466.32" rx="24.53" ry="13.21" transform="translate(-262.75 248.72) rotate(-44.16)"/><ellipse class="cls-54" cx="221.93" cy="477.84" rx="24.53" ry="13.21" transform="translate(-270.19 253.47) rotate(-44.16)"/><ellipse class="cls-55" cx="237.28" cy="460.89" rx="21.35" ry="21.47" transform="translate(-254.04 259.36) rotate(-44.16)"/><circle class="cls-33" cx="238.63" cy="422.66" r="21.44"/><circle class="cls-56" cx="238.63" cy="423.09" r="21.44"/><path class="cls-24" d="M238.63,441a18.31,18.31,0,1,0,18.31,18.31A18.31,18.31,0,0,0,238.63,441Zm-3,22.29a3.79,3.79,0,0,0,3.25,1.46,3.49,3.49,0,0,0,3.77-3H246a6.23,6.23,0,0,1-2.12,4.43,7.88,7.88,0,0,1-5.09,1.56,7,7,0,0,1-5.61-2.22q-1.93-2.12-1.93-6.27t2-6.36a7.52,7.52,0,0,1,5.84-2.22,7.42,7.42,0,0,1,4.95,1.56,6,6,0,0,1,2,4.24h-2a1.64,1.64,0,0,1-1.6-1,4.65,4.65,0,0,0-.8-1.08,4.06,4.06,0,0,0-2.5-.71,4.11,4.11,0,0,0-3.35,1.41,6.53,6.53,0,0,0-1.13,4.15A6.36,6.36,0,0,0,235.68,463.29Z" transform="translate(0 -36.22)"/><ellipse class="cls-57" cx="349.81" cy="646.4" rx="19.32" ry="10.41" transform="translate(-351.48 390.22) rotate(-44.17)"/><ellipse class="cls-58" cx="338.88" cy="637.32" rx="19.33" ry="10.41" transform="translate(-348.25 380.03) rotate(-44.16)"/><ellipse class="cls-59" cx="340.54" cy="646.4" rx="19.32" ry="10.41" transform="translate(-354.1 383.75) rotate(-44.16)"/><ellipse class="cls-60" cx="352.64" cy="633.05" rx="16.81" ry="16.91" transform="translate(-341.37 388.37) rotate(-44.16)"/><ellipse class="cls-61" cx="353.33" cy="642.88" rx="19.32" ry="10.41" transform="translate(-348.03 391.65) rotate(-44.16)"/><ellipse class="cls-62" cx="342.4" cy="633.8" rx="19.32" ry="10.41" transform="translate(-344.79 381.45) rotate(-44.16)"/><ellipse class="cls-63" cx="344.07" cy="642.88" rx="19.32" ry="10.41" transform="translate(-350.65 385.2) rotate(-44.16)"/><ellipse class="cls-64" cx="356.16" cy="629.53" rx="16.81" ry="16.91" transform="translate(-337.93 389.84) rotate(-44.16)"/><circle class="cls-33" cx="357.22" cy="591.72" r="16.89"/><circle class="cls-65" cx="357.22" cy="592.07" r="16.89"/><path class="cls-14" d="M357.89,623.78h-2.45V632h2.12a3.39,3.39,0,0,0,2.67-1,4.63,4.63,0,0,0,.82-3.12,5.15,5.15,0,0,0-.78-3.16A2.76,2.76,0,0,0,357.89,623.78Z" transform="translate(0 -36.22)"/><path class="cls-14" d="M357.22,613.86a14.42,14.42,0,1,0,14.42,14.42A14.42,14.42,0,0,0,357.22,613.86Zm6,17.16a5.18,5.18,0,0,1-1.56,2.15,5.06,5.06,0,0,1-1.74.89,10.36,10.36,0,0,1-2.71.26h-4.31V622.89a1.33,1.33,0,0,1,1.34-1.34h3.67a5.7,5.7,0,0,1,4.38,1.56,7.08,7.08,0,0,1,1.45,4.83A8.68,8.68,0,0,1,363.2,631Z" transform="translate(0 -36.22)"/><path class="cls-66" d="M252.8,798.67c-49.68-51.19-13-167.4,82-259.61S547,413.52,596.69,464.66s13,167.4-82,259.63S302.48,849.81,252.8,798.67Z" transform="translate(0 -36.22)"/><path class="cls-67" d="M117.22,686.1c-49.67-51.16-13-167.4,82-259.6S411.44,301,461.12,352.12s13,167.4-82,259.62S166.9,737.23,117.22,686.1Z" transform="translate(0 -36.22)"/><path class="cls-68" d="M137.84,798.67c-49.68-51.17-13-167.4,82-259.61S432,413.52,481.74,464.67s13,167.4-82,259.62S187.51,849.81,137.84,798.67Z" transform="translate(0 -36.22)"/><path class="cls-69" d="M310.16,611.4c-80.72-83.14-79.18-215.56,3.46-295.78s215-77.94,295.77,5.17,79.16,215.55-3.45,295.8S390.88,694.51,310.16,611.4Z" transform="translate(0 -36.22)"/><path class="cls-70" d="M275.65,772.76c-49.68-51.19-13-167.4,82-259.6s212.23-125.54,261.91-74.4,13,167.4-82,259.62S325.33,823.91,275.65,772.76Z" transform="translate(0 -36.22)"/><path class="cls-71" d="M140.07,660.2c-49.67-51.16-13-167.4,82-259.6S434.29,275.07,484,326.21s13,167.39-82,259.62S189.74,711.33,140.07,660.2Z" transform="translate(0 -36.22)"/><path class="cls-72" d="M160.69,772.76c-49.68-51.17-13-167.4,82-259.6s212.21-125.54,261.9-74.39,13,167.4-82,259.61S210.36,823.91,160.69,772.76Z" transform="translate(0 -36.22)"/><path class="cls-73" d="M333,585.5c-80.72-83.14-79.18-215.56,3.46-295.78s215-77.94,295.78,5.17,79.16,215.56-3.45,295.81S413.73,668.61,333,585.5Z" transform="translate(0 -36.22)"/><path class="cls-74" d="M726.06,402.75c0,115.67-93.77,209.44-209.45,209.44S307.15,518.42,307.15,402.75,400.94,193.3,516.6,193.3,726.06,287.07,726.06,402.75Z" transform="translate(0 -36.22)"/><path class="cls-4" d="M327.34,209.52h0l.13-.13Z" transform="translate(0 -36.22)"/><path class="cls-13" d="M585.05,386.45H581.7V331.2h-5v-3.35h8.37Z" transform="translate(0 -36.22)"/><path class="cls-13" d="M624.24,341.66a14.66,14.66,0,0,1-.93,5.23,20.87,20.87,0,0,1-2.5,4.73,36.7,36.7,0,0,1-3.6,4.35c-1.34,1.4-2.76,2.76-4.27,4.11H613q-2.34,2.18-4.69,4.48a40.41,40.41,0,0,0-4.35,5.06,31.1,31.1,0,0,0-3.43,6.07,27.13,27.13,0,0,0-1.93,7.41h25.54v3.35H595.09a32.3,32.3,0,0,1,1.51-9.79,33.74,33.74,0,0,1,3.64-7.7,37.3,37.3,0,0,1,4.94-6.16c1.81-1.81,3.65-3.56,5.48-5.23q2-1.84,3.85-3.77a36.48,36.48,0,0,0,3.26-3.89,19.13,19.13,0,0,0,2.26-4,11,11,0,0,0,.84-4.23,12.36,12.36,0,0,0-.7-4.15A9.72,9.72,0,0,0,618,334a10.43,10.43,0,0,0-3.64-2.39,13.34,13.34,0,0,0-5-.88,13.1,13.1,0,0,0-6.36,1.55,14.46,14.46,0,0,0-4.77,4.14l-2.76-1.84a17.52,17.52,0,0,1,6-5.23,16.41,16.41,0,0,1,7.91-2,16.8,16.8,0,0,1,6.5,1.17,13.9,13.9,0,0,1,4.69,3.14,12.66,12.66,0,0,1,2.8,4.52A15.6,15.6,0,0,1,624.24,341.66Z" transform="translate(0 -36.22)"/><path class="cls-13" d="M630.93,336.22a8.8,8.8,0,0,1,.67-3.43,8.28,8.28,0,0,1,1.88-2.76,9.76,9.76,0,0,1,2.81-1.88,8.63,8.63,0,0,1,6.86,0,9,9,0,0,1,4.65,4.65,8.67,8.67,0,0,1,0,6.86,9.7,9.7,0,0,1-1.89,2.8,8.23,8.23,0,0,1-2.76,1.88,8.81,8.81,0,0,1-11.56-4.69A8.8,8.8,0,0,1,630.93,336.22Zm3.35,0a5.44,5.44,0,1,0,1.59-3.85A5.23,5.23,0,0,0,634.28,336.22Zm5.19,50.24,14.06-58.61H657l-14.06,58.61Zm8.45-8.37a8.78,8.78,0,0,1,.67-3.43,8.23,8.23,0,0,1,1.89-2.76,9.71,9.71,0,0,1,2.81-1.88,8.62,8.62,0,0,1,6.86,0,9.13,9.13,0,0,1,2.77,1.88,9.26,9.26,0,0,1,1.88,2.76,8.57,8.57,0,0,1,0,6.86,9.81,9.81,0,0,1-1.88,2.8,8.2,8.2,0,0,1-2.77,1.88,9.09,9.09,0,0,1-6.86,0,8.78,8.78,0,0,1-4.69-4.69A8.79,8.79,0,0,1,647.93,378.08Zm3.35,0a5.43,5.43,0,1,0,1.59-3.85A5.24,5.24,0,0,0,651.28,378.08Z" transform="translate(0 -36.22)"/><path class="cls-75" d="M561.44,407A45.06,45.06,0,1,1,541.11,365l54.29-94A157.26,157.26,0,1,0,673.85,407Z" transform="translate(0 -36.22)"/><ellipse class="cls-76" cx="506.21" cy="433.05" rx="32.82" ry="17.68" transform="translate(-158.63 438.88) rotate(-44.17)"/><ellipse class="cls-77" cx="487.64" cy="417.64" rx="32.82" ry="17.68" transform="translate(-153.14 421.56) rotate(-44.16)"/><ellipse class="cls-78" cx="490.46" cy="433.05" rx="32.82" ry="17.68" transform="translate(-163.08 427.9) rotate(-44.16)"/><ellipse class="cls-79" cx="511" cy="410.38" rx="28.56" ry="28.73" transform="translate(-141.48 435.78) rotate(-44.16)"/><ellipse class="cls-80" cx="512.19" cy="427.07" rx="32.82" ry="17.68" transform="translate(-152.78 441.33) rotate(-44.16)"/><path class="cls-81" d="M470.07,434.52c-6.8-7-1.77-22.92,11.23-35.55s29.06-17.19,35.87-10.19,1.77,22.92-11.23,35.55S476.88,441.53,470.07,434.52Z" transform="translate(0 -36.22)"/><ellipse class="cls-82" cx="496.44" cy="427.07" rx="32.82" ry="17.68" transform="translate(-157.23 430.37) rotate(-44.16)"/><ellipse class="cls-83" cx="516.98" cy="404.4" rx="28.56" ry="28.73" transform="translate(-135.63 438.26) rotate(-44.16)"/><circle class="cls-33" cx="518.78" cy="365.48" r="28.68"/><circle class="cls-84" cx="518.78" cy="366.07" r="28.68"/><polygon class="cls-85" points="515.73 367.41 521.78 367.41 518.75 358.2 515.73 367.41"/><path class="cls-86" d="M518.78,377.79a24.5,24.5,0,1,0,24.5,24.5A24.5,24.5,0,0,0,518.78,377.79Zm5.64,34L523,407.28h-8.45l-1.39,4.48h-4.73l7.19-20.24a2.12,2.12,0,0,1,2.14-1.45h3.53l7.88,21.69Z" transform="translate(0 -36.22)"/><path class="cls-87" d="M418,70.15a172.06,172.06,0,0,0-71.87-27.82c0,.44-.08.89-.14,1.34A172.18,172.18,0,0,1,473.31,133.8q.74-.06,1.49-.06a174.31,174.31,0,0,0-54.88-62.24" transform="translate(0 -36.22)"/><path class="cls-87" d="M418,70.15a172.06,172.06,0,0,0-71.87-27.82c0,.44-.08.89-.14,1.34A172.18,172.18,0,0,1,473.31,133.8q.74-.06,1.49-.06a174.31,174.31,0,0,0-54.88-62.24" transform="translate(0 -36.22)"/><path class="cls-88" d="M458.27,76.94a179,179,0,0,0-26.59-22.7l-2-1.38a177.15,177.15,0,0,0-30.8-16.65c-.49.31-1,.6-1.49.87a176.63,176.63,0,0,1,60.28,41.2C457.87,77.83,458.05,77.38,458.27,76.94Z" transform="translate(0 -36.22)"/><path class="cls-89" d="M617.06,188.68v0a235.4,235.4,0,0,0-79.78-21.85c.23.47.44,1,.64,1.45a235.11,235.11,0,0,1,140.17,64c.71,0,1.43.06,2.14.14A238.24,238.24,0,0,0,619.81,190" transform="translate(0 -36.22)"/><path class="cls-90" d="M606.42,160.49A250.75,250.75,0,0,0,542,145.88c.24.51.47,1,.68,1.55A249.55,249.55,0,0,1,606.31,162C606.33,161.51,606.36,161,606.42,160.49Z" transform="translate(0 -36.22)"/><path class="cls-91" d="M646.34,179.4c-.35.37-.71.73-1.08,1.08a252.74,252.74,0,0,1,46.8,35.2q1.14,0,2.28.15A254.3,254.3,0,0,0,646.34,179.4Z" transform="translate(0 -36.22)"/><path class="cls-14" d="M453.78,695.72a117.18,117.18,0,0,0,13-24c-.44-.13-.88-.25-1.32-.4a115.89,115.89,0,0,1-12.79,23.54C453.07,695.15,453.43,695.43,453.78,695.72Z" transform="translate(0 -36.22)"/><path class="cls-14" d="M419.08,726.71a115.41,115.41,0,0,1-28.36,12.81c.21.41.42.82.6,1.24a116.84,116.84,0,0,0,28.6-13C419.64,727.44,419.35,727.08,419.08,726.71Z" transform="translate(0 -36.22)"/><path class="cls-14" d="M466.71,704.8a132.88,132.88,0,0,0,14.78-27.2c-.5-.14-1-.28-1.49-.46a131.3,131.3,0,0,1-14.51,26.7C465.91,704.14,466.31,704.47,466.71,704.8Z" transform="translate(0 -36.22)"/><path class="cls-14" d="M427.37,739.94a130.9,130.9,0,0,1-32.15,14.52c.23.47.47.93.68,1.41a132.53,132.53,0,0,0,32.43-14.7C428,740.77,427.68,740.36,427.37,739.94Z" transform="translate(0 -36.22)"/><path class="cls-14" d="M481.29,715A150.61,150.61,0,0,0,498,684.21c-.57-.16-1.14-.32-1.69-.52a148.84,148.84,0,0,1-16.44,30.25C480.38,714.29,480.84,714.66,481.29,715Z" transform="translate(0 -36.22)"/><path class="cls-14" d="M436.71,754.86a148.25,148.25,0,0,1-36.44,16.45c.27.53.54,1.06.77,1.6a150.16,150.16,0,0,0,36.75-16.66C437.42,755.79,437.06,755.33,436.71,754.86Z" transform="translate(0 -36.22)"/><line class="cls-14" x1="439.93" y1="674.54" x2="439.93" y2="673.2"/><path class="cls-24" d="M158.8,548a127.72,127.72,0,0,0,40.53,24.6c.14-.45.27-.89.44-1.33a126.21,126.21,0,0,1-41-25.18l-.36-.31-.37-.38a116.3,116.3,0,0,1-31.65-49.78c-.44.21-.89.42-1.34.61a117.77,117.77,0,0,0,32.27,50.44Z" transform="translate(0 -36.22)"/><path class="cls-24" d="M147.49,560.47a145.72,145.72,0,0,0,46.25,28.07c.15-.51.31-1,.5-1.52a144.06,144.06,0,0,1-46.75-28.73l-.41-.35-.42-.43a132.7,132.7,0,0,1-36.12-56.8c-.51.24-1,.48-1.53.69A134.39,134.39,0,0,0,145.84,559Z" transform="translate(0 -36.22)"/><path class="cls-24" d="M135.69,573.45a164.47,164.47,0,0,0,52.21,31.68c.17-.57.35-1.15.56-1.71A162.59,162.59,0,0,1,135.69,571l-.46-.4-.47-.49A149.81,149.81,0,0,1,94,506c-.57.27-1.14.54-1.73.78a151.72,151.72,0,0,0,41.57,65Z" transform="translate(0 -36.22)"/></g></g></g></g></svg>