<svg xmlns="http://www.w3.org/2000/svg" xmlns:xlink="http://www.w3.org/1999/xlink" viewBox="0 0 641.93 540.46"><defs><style>.cls-1,.cls-12,.cls-13,.cls-6{fill:none;}.cls-2{isolation:isolate;}.cls-3{fill:#825244;}.cls-4{fill:#ca782c;}.cls-5{fill:#2bb673;}.cls-6{stroke:#e0b350;opacity:0.5;mix-blend-mode:multiply;}.cls-12,.cls-6{stroke-miterlimit:10;}.cls-7{font-size:90.91px;fill:#00a79d;font-family:ArialRoundedMTBold, Arial Rounded MT Bold;}.cls-8{letter-spacing:-0.06em;}.cls-9{clip-path:url(#clip-path);}.cls-10{fill:#f29d1f;}.cls-11{clip-path:url(#clip-path-2);}.cls-12{stroke:#825244;stroke-width:2px;}.cls-13{stroke:#e8cfb3;stroke-linecap:round;stroke-linejoin:round;stroke-width:4px;opacity:0.38;mix-blend-mode:screen;}.cls-14{clip-path:url(#clip-path-3);}</style><clipPath id="clip-path" transform="translate(-27.37)"><rect class="cls-1" y="192.89" width="290.74" height="457.1"/></clipPath><clipPath id="clip-path-2" transform="translate(-27.37)"><path class="cls-1" d="M547.7,261.36a3.68,3.68,0,0,1,4,3.69c-2.14,142.86-118.69,258-262.16,258-143,0-259.32-114.46-262.13-256.72a4.8,4.8,0,0,1,5.16-4.87C69.7,264.33,300.26,280.49,547.7,261.36Z"/></clipPath><clipPath id="clip-path-3" transform="translate(-27.37)"><rect class="cls-1" x="11.45" y="174.82" width="279.29" height="145.72" transform="translate(302.18 495.36) rotate(180)"/></clipPath></defs><title>logo</title><g class="cls-2"><g id="Layer_2" data-name="Layer 2"><g id="Layer_1-2" data-name="Layer 1"><path class="cls-3" d="M92.12,93.41h0c-.22-4.88,2.82-5,6.54-5.19L649.8,58.15c3.72-.17,5.74,5.3,6,10.18h0c.22,4.88-1,10.27-4.7,10.43L98.76,98C95,98.18,92.33,98.3,92.12,93.41Z" transform="translate(-27.37)"/><path class="cls-4" d="M567.93,81.67l83.13-2.9c3.72-.17,4.92-5.55,4.7-10.43h0c-.22-4.88-2.24-10.35-6-10.18l-82.72,4.51Z" transform="translate(-27.37)"/><path class="cls-5" d="M129.89,244.07c10.62-12,9.18-30.32,4.83-45.73s-11-30.93-8.86-46.78c1.66-12.08,8.32-22.79,12.76-34.14s6.37-25.14-.76-35c26.74-.19,53.47-.67,80.21-1,10.25-.13,27.45-5.15,30.58,6.76,2.71,10.33.17,21.51-3.17,31.38-4.17,12.29-9.9,24.45-10,37.43-.11,11.63,4.32,22.78,6.41,34.22a86.54,86.54,0,0,1-9.47,57.18s-24.28,17.16-49.82,10.31S129.89,244.07,129.89,244.07Z" transform="translate(-27.37)"/><path class="cls-6" d="M148.54,83.21a43,43,0,0,1,1.27,37.41c-3.8,8.4-10.35,15.62-12.41,24.6-3.82,16.63,8.61,32.08,14.42,48.12a64.7,64.7,0,0,1-1.73,47.81" transform="translate(-27.37)"/><path class="cls-6" d="M166.7,83.13a51.09,51.09,0,0,1,2.53,29.53c-2.44,11.39-8.75,21.74-10.68,33.23-2.58,15.37,2.91,30.78,7.09,45.8s6.92,31.88-.52,45.57c-.32.59-.87,1.27-1.52,1.08s0-1.48.34-.89" transform="translate(-27.37)"/><path class="cls-6" d="M182.63,81.67a43,43,0,0,1,5,29.91c-3.37,16.89-16.86,31.6-15.52,48.77,1.09,13.84,11.62,25,15.77,38.29a43.7,43.7,0,0,1-9.37,41.79" transform="translate(-27.37)"/><path class="cls-6" d="M199.38,82.85c8.56,11.86,7.36,28.08,4.08,42.34s-8.31,28.68-6.15,43.16c1.55,10.37,6.68,19.84,9.56,29.93a70.88,70.88,0,0,1-4.35,49.82" transform="translate(-27.37)"/><path class="cls-6" d="M220,81.37a44.75,44.75,0,0,1,3.6,34.12c-3.18,10.52-10.18,19.58-13.29,30.12a43.7,43.7,0,0,0,.38,25.74c3.91,12,12.87,21.8,16.77,33.78a44.22,44.22,0,0,1-10.17,43.62" transform="translate(-27.37)"/><path class="cls-3" d="M110.53,89.37h0c-.69-4.84,2.32-5.28,6-5.81L662.14,0c3.69-.53,6.23,4.72,6.92,9.56h0c.69,4.84,0,10.32-3.66,10.84L117.58,93.29C113.9,93.82,111.22,94.2,110.53,89.37Z" transform="translate(-27.37)"/><path class="cls-4" d="M582.94,31.4l82.45-11c3.69-.53,4.36-6,3.66-10.84h0c-.69-4.84-3.23-10.08-6.92-9.56L580.26,12.57Z" transform="translate(-27.37)"/><text class="cls-7" transform="translate(275.43 287.07)">DIGI<tspan class="cls-8" x="0" y="75.76">T</tspan><tspan x="51.09" y="75.76">AL</tspan><tspan x="0" y="151.51">NOO</tspan><tspan x="0" y="227.27">DLE</tspan></text><g class="cls-9"><path class="cls-10" d="M547.34,261.36a3.67,3.67,0,0,1,4,3.69c-2.14,142.86-118.61,258-262,258-142.93,0-259.14-114.46-262-256.72a4.79,4.79,0,0,1,5.16-4.87C69.67,264.33,300.07,280.49,547.34,261.36Z" transform="translate(-27.37)"/><rect class="cls-4" x="175.01" y="508.49" width="173.88" height="31.97" rx="3.58" ry="3.58"/><g class="cls-11"><path class="cls-12" d="M28.52,314.46s239.95,23.38,522,0" transform="translate(-27.37)"/></g><path class="cls-13" d="M66,307.94S85.6,405.72,182.54,458.86" transform="translate(-27.37)"/></g><g class="cls-14"><path class="cls-5" d="M324.42,211c24,8.9,50-15.26,74.95-9.31,12.82,3.06,22.73,13.61,35.38,17.29,18,5.22,36.76-4.42,55.49-5.06,31.68-1.08,61,28.34,59.85,60-144.25,18.55-290.31,19.72-435.56,12.27-29.36-1.51-59.59-3.59-86-16.49C40.71,255.33,54.42,240,73,236.6c15.87-2.91,32.49,3.59,48.21-.06,24-5.58,40.86-33.58,65.46-31.69,12,.92,22.37,9.1,34.28,10.67,27.16,3.59,52.16-27.48,78.12-18.71C308.27,199.92,315.31,207.65,324.42,211Z" transform="translate(-27.37)"/><path class="cls-6" d="M55.06,264.09a47.66,47.66,0,0,1,34.22-16.28c15-.44,30.31,6.27,44.75,2.08,15.78-4.57,26.78-21.27,43.14-22.75,15.79-1.43,29.45,12,45.27,13,21.67,1.32,40.15-20.86,61.65-17.81,11.91,1.69,21.58,10.92,33.37,13.32,21.58,4.4,42.17-15,64-12.44,15.95,1.84,28.77,15,44.66,17.26s31.15-6.56,47.07-8.63c23.9-3.1,49,11.15,58.62,33.25" transform="translate(-27.37)"/><path class="cls-6" d="M79.88,266.42c7.66-7.72,19.79-8.49,30.64-7.76s22.27,2.37,32.21-2.06c10.84-4.83,19-16.5,30.85-16.69,9.55-.16,17.28,7.32,26,11.23A36.68,36.68,0,0,0,225,252.74c16-4.85,28.92-20.61,45.54-19,13.64,1.35,23.47,14.17,36.69,17.76,23.62,6.41,46.53-18.31,70.7-14.43,11.35,1.82,20.79,9.73,31.78,13.11,12.61,3.88,26.23,1.53,39-1.57s25.78-6.94,38.94-6,26.86,8.08,31.24,20.52" transform="translate(-27.37)"/><path class="cls-6" d="M139.82,268c13-4.48,25-14.95,38.54-12.83,7.22,1.13,13.37,5.72,20.17,8.41,12.13,4.79,26.15,3.22,38-2.19,11.27-5.15,22.29-13.85,34.52-11.87,12.58,2,20.8,14.66,32.76,19.06,10.36,3.81,21.92.91,32.29-2.89s20.79-8.55,31.83-8.38c18,.28,33.71,13.55,51.69,14.91,10.42.79,20.68-2.51,30.5-6.07s19.75-7.45,30.18-7.94S502,261.36,507.9,270" transform="translate(-27.37)"/></g></g></g></g></svg>